<svg xmlns="http://www.w3.org/2000/svg" version="1.1" xmlns:xlink="http://www.w3.org/1999/xlink" xmlns:svgjs="http://svgjs.dev/svgjs" width="2000" height="1500" viewBox="0 0 2000 1500"><rect width="2000" height="1500" fill="#004051"></rect><g transform="matrix(0.75,0,0,0.75,249.090909090909,282.7536437246963)"><svg viewBox="0 0 396 247" data-background-color="#004051" preserveAspectRatio="xMidYMid meet" height="1247" width="2000" xmlns="http://www.w3.org/2000/svg" xmlns:xlink="http://www.w3.org/1999/xlink"><g id="tight-bounds" transform="matrix(1,0,0,1,0.2400000000000091,-0.09999999999999432)"><svg viewBox="0 0 395.52 247.2" height="247.2" width="395.52"><g><svg></svg></g><g><svg viewBox="0 0 395.52 247.2" height="247.2" width="395.52"><g transform="matrix(1,0,0,1,92.34276585365853,47.215199999999996)"><svg viewBox="0 0 210.8344682926829 152.7696" height="152.7696" width="210.8344682926829"><g><svg viewBox="0 0 210.8344682926829 152.7696" height="152.7696" width="210.8344682926829"><g><svg viewBox="0 0 210.8344682926829 152.7696" height="152.7696" width="210.8344682926829"><g><svg viewBox="0 0 210.8344682926829 152.7696" height="152.7696" width="210.8344682926829"><g id="textblocktransform"><svg viewBox="0 0 210.8344682926829 152.7696" height="152.7696" width="210.8344682926829" id="textblock"><g><svg viewBox="0 0 210.8344682926829 152.7696" height="152.7696" width="210.8344682926829"><g transform="matrix(1,0,0,1,0,0)"><svg width="210.8344682926829" viewBox="4.1 -24.6 33.949999999999996 24.6" height="152.7696" data-palette-color="#32fd6b"><path d="M30.45-24.6Q34.3-24.6 36.18-22.6 38.05-20.6 38.05-16.95L38.05-16.95 38.05 0 33.05 0 33.05-17.1Q33.05-19.4 32-20.6 30.95-21.8 28.95-21.8L28.95-21.8Q25.95-21.8 23.4-19.6L23.4-19.6Q23.75-18.2 23.75-16.95L23.75-16.95 23.75 0 18.65 0 18.65-17.1Q18.65-21.8 14.45-21.8L14.45-21.8Q11.6-21.8 9.15-19.7L9.15-19.7 9.15 0 4.1 0 4.1-24 6.3-24 8.25-21.55Q9.85-22.9 11.85-23.75 13.85-24.6 16-24.6L16-24.6Q20.8-24.6 22.65-21.5L22.65-21.5Q24.2-22.85 26.23-23.73 28.25-24.6 30.45-24.6L30.45-24.6Z" opacity="1" transform="matrix(1,0,0,1,0,0)" fill="#32fd6b" class="wordmark-text-0" data-fill-palette-color="primary" id="text-0"></path></svg></g></svg></g></svg></g></svg></g></svg></g></svg></g></svg></g><g><path d="M229.017 0c68.262 0 123.6 55.338 123.6 123.6 0 68.262-55.338 123.6-123.6 123.6-30.402 0-58.24-10.976-79.768-29.183h11.147c19.26 14.022 42.974 22.294 68.621 22.295 64.458 0 116.712-52.254 116.712-116.712 0-64.458-52.254-116.712-116.712-116.712-25.647 0-49.361 8.272-68.621 22.295l-11.147 0c21.528-18.206 49.366-29.183 79.768-29.183z" fill="#32fd6b" stroke="transparent" data-fill-palette-color="tertiary"></path></g></svg></g><defs></defs></svg><rect width="395.52" height="247.2" fill="none" stroke="none" visibility="hidden"></rect></g></svg></g></svg>